<?xml version="1.0" encoding="UTF-8"?>
<svg xmlns="http://www.w3.org/2000/svg" xmlns:xlink="http://www.w3.org/1999/xlink" width="147px" height="40px" viewBox="0 0 147 40" version="1.1">
  <title>Pivot_logo_black</title>
  <g id="Home" stroke="none" stroke-width="1" fill="none" fill-rule="evenodd">
    <g id="Pivot-Home-Branded-V5---Meta" transform="translate(-60.000000, -78.000000)" fill="#000000" fill-rule="nonzero">
      <g id="main-nav" transform="translate(0.000000, 46.000000)">
        <g id="Pivot_logo_black" transform="translate(60.000000, 32.000000)">
          <path d="M4.42351808,4.66271973 L4.42351808,19.9816357 L10.7808514,19.9816357 C13.9881547,19.9816357 15.4267245,19.3752128 16.7002126,17.936643 C18.0276049,16.4441689 18.6373968,14.7293397 18.6373968,12.5731694 C18.6373968,9.75330299 17.9635936,7.87339203 16.4273223,6.5459997 C14.891051,5.21860738 12.8325822,4.66608874 9.23784202,4.66608874 L4.42351808,4.66271973 Z M0,0.848993555 L10.5079611,0.848993555 C14.6013156,0.848993555 16.7574859,1.29370367 18.8024786,2.621096 C22.0097819,4.71662399 23.6707068,7.87339203 23.6707068,11.6871182 C23.6707068,15.5581176 22.5623005,18.3779841 20.1298709,20.6992361 C18.1926867,22.5724091 16.0365164,23.6875534 11.0604797,23.6875534 L4.42351808,23.6875534 L4.42351808,38.7841143 L0,38.7841143 L0,0.848993555 Z M32.6087064,0.848993555 L37.0355935,0.848993555 L37.0355935,38.7874833 L32.6087064,38.7874833 L32.6087064,0.848993555 Z M45.8186183,0.848993555 L50.7407508,0.848993555 L58.759009,25.1833965 C59.6716869,27.9557325 60.4109305,30.7821859 60.9724526,33.6463648 C61.1914386,32.7064094 61.9831574,29.8292697 63.2970736,25.7392842 L71.4231404,0.848993555 L76.0656445,0.848993555 L63.0578735,38.7841143 L58.5770821,38.7841143 L45.8186183,0.848993555 Z M120.971259,0.848993555 L120.971259,4.66271973 L131.149057,4.66271973 L131.149057,38.7874833 L135.515302,38.7874833 L135.515302,4.66271973 L145.800908,4.66271973 L146.080536,0.848993555 L120.971259,0.848993555 L120.971259,0.848993555 Z" id="Shape"></path>
          <path d="M99.4836751,0 C98.3545242,0.00176033228 97.2275304,0.0986818056 96.114659,0.28973689 L96.114659,4.8446466 C103.725397,3.12777825 111.433558,7.30064283 114.156855,14.6119098 C116.880151,21.9231768 113.780138,30.1218637 106.900774,33.8022602 C100.02141,37.4826566 91.4807034,35.5116474 86.9098715,29.1887948 C82.3390396,22.8659423 83.1453436,14.1379173 88.7971561,8.75944325 L91.704617,11.8185098 L91.704617,1.51268972 L91.6406057,1.53627283 C91.276752,1.71146166 90.9230053,1.90012656 90.5726276,2.09889851 C81.4847945,6.62705772 77.2324702,17.2465791 80.6834475,26.7955944 C84.1344248,36.3446096 94.1933106,41.7921148 104.076333,39.4642802 C113.959354,37.1364456 120.52949,27.7721614 119.3558,17.6867566 C118.182111,7.60135189 109.637143,-0.00391142302 99.4836751,0" id="Path"></path>
        </g>
      </g>
    </g>
  </g>
</svg>
